HIERARCHY
ROOT Pelvis
{
	OFFSET 0.000000 0.000000 0.000000
	CHANNELS 6 Xposition Yposition Zposition Zrotation Yrotation Xrotation 
	JOINT Left_hip
	{
		OFFSET 0.069463 -0.088608 -0.009542
		CHANNELS 3 Zrotation Yrotation Xrotation
		JOINT Left_knee
		{
			OFFSET 0.030639 -0.359740 -0.005288
			CHANNELS 3 Zrotation Yrotation Xrotation
			JOINT Left_ankle
			{
				OFFSET -0.011068 -0.376034 -0.042462
				CHANNELS 3 Zrotation Yrotation Xrotation
				JOINT Left_foot
				{
					OFFSET 0.023192 -0.053321 0.111332
					CHANNELS 3 Zrotation Yrotation Xrotation
					End Site
					{
						OFFSET 0.000000 0.000000 0.000000
					}
				}
			}
		}
	}
	JOINT Right_hip
	{
		OFFSET -0.067438 -0.088025 -0.006263
		CHANNELS 3 Zrotation Yrotation Xrotation
		JOINT Right_knee
		{
			OFFSET -0.035962 -0.366229 -0.008063
			CHANNELS 3 Zrotation Yrotation Xrotation
			JOINT Right_ankle
			{
				OFFSET 0.013608 -0.375719 -0.040481
				CHANNELS 3 Zrotation Yrotation Xrotation
				JOINT Right_foot
				{
					OFFSET -0.021034 -0.045527 0.114617
					CHANNELS 3 Zrotation Yrotation Xrotation
					End Site
					{
						OFFSET 0.000000 0.000000 0.000000
					}
				}
			}
		}
	}
	JOINT Spine1
	{
		OFFSET -0.002610 0.101823 -0.019986
		CHANNELS 3 Zrotation Yrotation Xrotation
		JOINT Spine2
		{
			OFFSET 0.004114 0.128714 -0.000938
			CHANNELS 3 Zrotation Yrotation Xrotation
			JOINT Spine3
			{
				OFFSET 0.002191 0.048470 0.027684
				CHANNELS 3 Zrotation Yrotation Xrotation
				JOINT Neck
				{
					OFFSET -0.002856 0.198873 -0.044022
					CHANNELS 3 Zrotation Yrotation Xrotation
					JOINT Head
					{
						OFFSET 0.002981 0.062960 0.049860
						CHANNELS 3 Zrotation Yrotation Xrotation
						End Site
						{
							OFFSET 0.000000 0.000000 0.000000
						}
					}
				}
				JOINT Left_collar
				{
					OFFSET 0.073708 0.112550 -0.033440
					CHANNELS 3 Zrotation Yrotation Xrotation
					JOINT Left_shoulder
					{
						OFFSET 0.083291 0.030786 -0.008013
						CHANNELS 3 Zrotation Yrotation Xrotation
						JOINT Left_elbow
						{
							OFFSET 0.245601 -0.011792 -0.027873
							CHANNELS 3 Zrotation Yrotation Xrotation
							JOINT Left_wrist
							{
								OFFSET 0.232258 0.008622 -0.000487
								CHANNELS 3 Zrotation Yrotation Xrotation
								JOINT Left_palm
								{
									OFFSET 0.077300 -0.009457 -0.012851
									CHANNELS 3 Zrotation Yrotation Xrotation
									End Site
									{
										OFFSET 0.000000 0.000000 0.000000
									}
								}
							}
						}
					}
				}
				JOINT Right_collar
				{
					OFFSET -0.075339 0.110574 -0.037874
					CHANNELS 3 Zrotation Yrotation Xrotation
					JOINT Right_shoulder
					{
						OFFSET -0.086522 0.031207 -0.009986
						CHANNELS 3 Zrotation Yrotation Xrotation
						JOINT Right_elbow
						{
							OFFSET -0.237313 -0.011478 -0.019859
							CHANNELS 3 Zrotation Yrotation Xrotation
							JOINT Right_wrist
							{
								OFFSET -0.237599 0.007976 -0.003742
								CHANNELS 3 Zrotation Yrotation Xrotation
								JOINT Right_palm
								{
									OFFSET -0.076920 -0.006943 -0.009920
									CHANNELS 3 Zrotation Yrotation Xrotation
									End Site
									{
										OFFSET 0.000000 0.000000 0.000000
									}
								}
							}
						}
					}
				}
			}
		}
	}
}
MOTION
Frames: 16
Frame Time: 0.100000
0.000000 0.000000 0.000000 20.020057 55.275048 -170.883490 5.278825 6.806676 16.433204 -0.073996 -8.226486 1.998431 5.848108 6.656520 -5.407958 -10.777092 9.825569 -2.169146 -4.145767 -5.344808 17.674137 -1.976500 -0.135226 -0.330361 -6.535448 -5.945714 -7.303655 14.218675 -6.659147 8.406650 0.058298 0.028358 8.414976 0.988165 -4.629666 6.418484 0.078623 -3.745326 -0.700401 -1.111389 -15.951538 15.404245 -0.469532 -14.925700 2.324977 -28.589730 2.373273 6.496407 -50.455592 -9.462633 4.772651 7.324800 -19.510559 9.917423 -11.825608 5.134538 -4.307344 -6.566883 -2.383414 -7.362278 29.342538 1.991724 3.254930 53.116623 2.582639 8.068576 -9.932492 12.302510 -6.610221 8.709996 -4.861505 -4.164332 9.697185 8.066782 -2.729358 
-0.005370 -0.000181 0.002491 20.423877 55.423978 -170.554059 5.472244 6.680147 16.464840 0.319326 -8.068259 2.260305 5.811649 6.990971 -5.525189 -10.717794 9.784786 -2.155581 -3.735472 -5.412742 18.040919 -1.900246 -0.081667 -0.640702 -6.846734 -5.797350 -7.568454 14.573154 -6.929043 8.699101 0.026879 0.009555 8.280171 1.031594 -4.758540 6.299915 0.166088 -3.792760 -0.797451 -1.012495 -15.974959 15.339845 -0.419922 -14.968783 2.342876 -28.615654 2.132749 6.426222 -50.389666 -9.582674 4.896793 7.400976 -20.125956 9.945637 -11.713655 5.091062 -4.171184 -6.602370 -2.380020 -7.309740 29.352964 2.182761 3.142184 53.092541 2.787114 8.144672 -10.106722 12.938286 -6.472822 8.656852 -4.767079 -4.246169 9.702212 8.075675 -2.695678 
-0.011621 -0.000255 0.003245 21.303608 56.212788 -169.857652 5.549045 6.768281 17.160689 0.886337 -7.730790 1.891481 5.738584 7.662332 -5.453269 -10.349641 9.685720 -2.189181 -3.501937 -5.337141 18.809106 -1.730798 0.361119 -1.529076 -6.990870 -5.482778 -7.615145 14.661030 -7.135234 8.937330 0.270915 0.066027 7.603638 1.034994 -4.724583 6.511161 0.167906 -3.689004 -0.776518 -0.955433 -16.193897 15.479011 -0.420804 -15.013163 2.221367 -28.791818 2.266920 6.392855 -50.733449 -9.058503 5.024861 7.109218 -19.614132 10.173725 -11.956635 5.214138 -4.077096 -6.858768 -2.439937 -7.622209 29.212829 2.268703 3.142746 52.983639 3.021588 8.263488 -10.160185 13.677320 -6.122445 8.577869 -4.708338 -4.216726 9.944323 8.127209 -2.919513 
-0.017490 -0.000340 0.004518 22.027535 56.719494 -169.121481 5.803733 6.783592 17.326974 1.127359 -7.453910 1.954269 5.576064 8.085905 -5.559980 -9.991809 9.566548 -2.163551 -3.173182 -5.281980 19.178901 -1.586570 0.696820 -2.138445 -7.123903 -5.340251 -7.686622 14.690589 -7.336015 9.057144 0.292319 0.040206 7.288919 1.106174 -4.799844 6.516554 0.260594 -3.723545 -0.741536 -0.762268 -16.439737 15.284487 -0.335547 -15.190201 2.073613 -28.918189 2.576756 6.456857 -51.064855 -8.322623 5.092966 6.752795 -18.686051 10.426281 -11.994086 5.145787 -4.062003 -6.960089 -2.464937 -7.965486 29.174351 2.254226 3.032055 52.930068 3.219725 8.427066 -10.073258 14.218110 -5.716474 8.394920 -4.594751 -4.319110 10.066227 8.125445 -3.034316 
-0.022499 -0.000332 0.005265 22.536994 57.413400 -168.533495 6.019191 7.088770 17.725807 1.154930 -7.249398 1.643181 5.359043 8.241992 -5.552694 -9.724316 9.397650 -2.182986 -3.176808 -5.199234 19.193680 -1.463108 0.947125 -2.183789 -7.166397 -5.052232 -7.908856 14.728655 -7.564435 8.998344 0.383342 -0.038389 7.073915 1.064137 -4.748040 6.438797 0.234564 -3.693808 -0.733903 -0.788995 -16.244379 15.119833 -0.532286 -15.000399 1.881370 -28.999864 3.047624 6.453434 -51.437680 -7.525731 5.056986 6.416358 -17.375688 10.738798 -12.262799 5.129529 -4.005462 -7.068686 -2.439787 -8.335405 29.140780 2.022135 2.971051 52.998851 3.327543 8.413627 -9.954516 14.127060 -5.608810 8.376934 -4.537931 -4.529569 10.186271 8.092012 -3.161890 
-0.023561 -0.002492 0.004156 21.865086 57.502260 -168.920258 5.779047 7.382178 17.899449 1.083728 -7.466020 1.254295 5.007204 7.831005 -5.453165 -9.321797 9.395035 -2.376397 -3.703302 -5.557980 19.042365 -1.554660 0.717239 -1.782866 -6.685561 -5.066331 -8.240311 14.030937 -7.282942 8.611168 0.508957 -0.067982 7.067085 0.861692 -4.766614 6.423314 0.174750 -3.758673 -0.819572 -1.176359 -14.849415 14.475231 -0.948223 -13.666218 1.177469 -29.102108 3.103453 6.252586 -51.393744 -7.082997 4.813865 6.048073 -16.928450 10.434327 -12.114832 5.215226 -4.032816 -7.604976 -2.613966 -8.788426 29.094032 1.223254 2.954489 53.216364 2.737996 8.111469 -10.772223 16.765271 -7.219897 8.327908 -4.155184 -6.173216 10.663833 8.206582 -3.368127 
-0.025320 -0.002677 0.001417 19.921676 55.919734 -170.216776 5.790242 7.233770 17.399803 0.714499 -8.341692 1.162531 4.143803 6.724629 -5.357282 -8.046640 9.821187 -2.957903 -3.930372 -5.919226 19.301836 -1.662188 -0.033624 -1.952234 -5.619366 -5.910309 -8.316153 12.173717 -6.651164 7.636292 0.459564 -0.035468 6.698028 0.704197 -5.109355 6.486171 0.302557 -4.037013 -0.880915 -1.355012 -12.867874 14.146979 -0.892391 -11.456040 0.073717 -28.822131 2.889098 6.118708 -51.377350 -6.717062 4.484134 6.183421 -19.060296 9.845578 -10.494921 5.307031 -4.071883 -8.602898 -2.978823 -9.646040 27.994324 -0.076571 2.716148 54.671881 1.513876 8.732438 -14.265261 27.181304 -8.856883 7.146033 -2.963155 -9.156768 11.464464 8.490336 -3.543411 
-0.024002 -0.002342 -0.002082 17.676757 54.989642 -171.230252 4.900594 7.250641 16.489422 0.553742 -9.267066 0.785143 2.973913 5.764354 -5.127182 -5.082766 11.087485 -4.390960 -4.678711 -5.866546 18.745309 -1.827329 -0.690458 -1.783830 -3.463366 -6.857380 -8.644375 8.467598 -5.817357 5.547809 0.748944 0.025554 5.645256 0.299616 -5.504669 6.352753 0.282485 -4.358521 -0.796832 -0.939298 -10.048713 14.816943 -0.687112 -7.686516 -0.945437 -28.098117 2.977256 5.640448 -51.923747 -5.094477 4.160686 6.062621 -23.782287 9.708013 -6.799897 5.611651 -2.630337 -11.149592 -3.804822 -12.227223 24.578615 -2.210379 1.895434 57.712813 0.049884 11.153349 -26.068906 52.772586 -14.900606 3.757083 -0.145009 -13.511983 13.296200 9.232156 -4.231179 
-0.022558 -0.002743 -0.001695 16.510376 54.105805 -178.964007 6.330522 8.729200 24.980762 1.976226 -11.263249 -1.606356 -4.135742 3.762954 -4.050084 1.928635 15.499847 -5.829940 -5.333765 -5.522543 27.758968 -2.582993 -1.023059 -4.649738 -0.468529 -7.444124 -4.369557 9.148731 -8.084875 -2.400547 1.559571 1.649809 11.338522 0.861584 -6.324961 11.355333 1.306218 -3.649022 -0.670645 -0.457714 -7.078292 11.872998 -1.738167 -7.332697 -4.594262 -25.905363 -2.084734 5.867996 -55.456376 -8.058685 2.471944 8.277225 -21.973096 6.123674 -3.947884 0.640991 1.052417 -9.831839 -3.650880 -14.430962 20.283414 2.068481 -0.676865 63.198242 -0.027453 15.930492 -106.955857 65.039990 -88.532160 -6.574284 3.429298 -23.749291 15.262372 9.857346 -5.765352 
-0.020125 -0.002840 0.005215 14.883341 52.331023 179.941714 6.052152 8.546242 23.208292 2.129008 -11.151556 0.175748 -4.762055 2.119710 -4.454661 3.210361 16.795660 -5.352804 -5.103239 -5.437353 26.541019 -2.482613 -2.099555 -2.757557 -1.437775 -7.425115 -5.182397 10.315477 -9.264456 -2.915446 2.102318 2.102365 12.393032 1.021469 -6.682286 11.122642 1.339193 -3.213817 -1.070913 0.794084 -4.621146 11.773101 -3.947831 -5.786532 -3.963874 -25.196535 -3.922464 5.266189 -56.122274 -6.799151 1.117579 8.528080 -21.747140 5.792137 -1.494098 -0.878970 2.639823 -10.916412 -4.358666 -15.566574 17.486826 5.434647 -3.617830 62.876707 8.704897 18.713400 -149.233958 51.290929 -121.889482 -12.683028 6.816325 -18.881304 16.128627 10.792476 -5.115429 
-0.018384 -0.003378 0.023239 14.596066 49.937995 179.669427 5.871006 7.202289 17.844159 2.447300 -11.276889 8.308420 -4.907255 1.650669 -6.259084 3.948012 18.218429 -5.222265 -3.390649 -5.800131 25.765742 -2.436478 -2.863684 -1.736617 -3.582735 -7.535451 -6.019008 12.942547 -10.956463 -3.300625 2.590113 2.541321 15.284703 0.971239 -6.937064 9.977069 1.686902 -2.738193 -0.766358 2.333782 -2.788043 11.965004 -5.485647 -4.219702 -3.666033 -22.908145 -5.525383 4.448285 -57.771679 -6.197672 0.674510 8.085598 -20.612382 6.299875 3.556210 -2.456525 1.920862 -9.610890 -4.129851 -14.984731 13.142397 10.307315 -7.250253 65.135673 20.160098 22.498915 -161.151856 43.607414 -129.006963 -21.170752 8.916800 -14.129624 15.633283 11.058042 -4.332905 
-0.018763 -0.003156 0.049382 15.094696 47.529935 179.652710 5.802067 4.569297 8.455646 1.958833 -10.987245 23.465297 -5.007768 1.975782 -5.634107 3.686626 18.788315 -6.959855 -1.017994 -6.447999 24.805215 -2.235607 -3.266238 -0.256632 -6.529811 -7.869510 -7.028459 15.224060 -12.923846 -3.600099 3.616535 3.581285 19.588956 0.770578 -6.715970 8.467884 2.105905 -1.614077 -0.394926 2.490698 -3.686857 12.241331 -4.975897 -3.914673 -3.291007 -20.994841 -8.088535 3.839825 -59.673137 -6.320753 0.578387 8.655975 -18.922776 6.303506 7.862968 -3.330024 0.987540 -8.409052 -3.883470 -13.852068 8.662994 15.831891 -9.174658 65.377953 28.369484 23.370104 -164.439501 41.582212 -129.065217 -28.259503 10.644254 -9.139456 14.948982 11.155698 -3.965492 
-0.022207 -0.002447 0.068171 14.244380 44.407675 178.952746 5.405285 0.921015 -5.338155 0.757282 -8.816696 42.972192 -7.817916 1.817539 3.929087 3.692290 19.637784 -12.567213 0.365368 -7.484418 25.595411 -1.774744 -3.868708 -2.002883 -9.772527 -8.494255 -6.185350 16.381322 -14.242700 -4.250270 4.609888 5.150974 23.384225 0.367406 -6.792634 7.073758 2.199600 -1.002228 0.050211 1.295112 -5.678414 11.477262 -3.135376 -4.292058 -4.103105 -19.865371 -8.398134 3.392639 -60.762746 -6.699567 1.129502 8.400711 -19.004054 6.542507 8.687590 -3.682859 -0.847151 -7.708174 -3.457431 -12.144881 6.427557 17.651168 -9.851463 66.865041 30.305042 24.433808 -165.693129 41.609142 -129.608297 -30.655231 10.819895 -8.446876 14.174623 10.853202 -3.170659 
-0.032797 -0.002330 0.067380 12.039348 41.130620 178.871216 4.956176 1.269406 -12.347864 1.278875 -3.929038 41.852008 -5.938961 1.512809 1.721769 3.453930 19.383841 -10.819579 0.123023 -8.481217 25.155803 -1.823377 -5.928147 -2.176561 -9.756301 -8.392454 -6.856724 16.784878 -15.398269 -4.526608 4.334690 6.035884 24.725503 0.480199 -6.976895 5.673307 2.236888 -0.936814 0.163644 0.951909 -5.904136 10.291033 -3.029542 -4.648739 -5.168164 -20.328619 -6.109223 3.507106 -62.883377 -4.951109 1.026291 8.826727 -19.950262 9.408722 6.472299 -3.656223 -0.087479 -7.373602 -3.414777 -12.462624 7.311581 15.578008 -9.529901 68.540935 29.610803 24.457599 -166.866302 42.397356 -128.701517 -27.475066 11.479083 -6.535039 13.397147 10.857194 -2.717614 
-0.049526 0.001864 0.046348 9.991041 38.912170 179.279428 3.803689 2.905451 -12.384777 1.678766 -0.134887 23.058327 -6.454399 1.075068 1.373277 6.142122 18.313643 -7.144394 -1.133683 -9.291125 25.438672 -1.731840 -8.147148 -1.986689 -8.525082 -8.365158 -8.323611 16.323427 -15.532626 -4.273985 4.049182 6.342445 24.355100 -0.118969 -7.063492 5.422213 1.913030 -0.677236 -0.209715 0.534947 -5.721011 9.089849 -3.145248 -5.895247 -6.953148 -20.462466 -4.596224 3.704506 -64.255548 -1.895602 0.402251 8.033954 -16.658407 9.521473 5.472512 -4.182584 0.540722 -7.105958 -3.341578 -14.319855 7.055627 14.651510 -9.401364 70.232143 29.941117 24.784455 -167.445540 42.643386 -128.394730 -25.389823 12.794865 -4.870127 12.346156 10.662499 -2.929836 
-0.071250 0.013187 0.004697 8.484623 36.360138 -179.928861 1.646491 3.406491 -11.629429 1.799840 2.247263 8.179389 -6.975383 1.149459 3.073256 7.928980 17.591786 -5.041004 -2.018136 -9.840237 27.102401 -2.370852 -9.808294 -2.175975 -7.556376 -9.536392 -8.801117 15.670837 -15.248043 -4.651494 3.872731 6.652488 23.316063 -0.802128 -7.137435 4.850477 1.633492 -0.525444 -0.495180 0.550359 -6.770447 7.526249 -2.501329 -6.836906 -9.685826 -20.171157 -2.855626 3.613571 -65.316413 0.684279 -0.772177 7.312123 -12.010575 8.558428 5.853600 -4.703002 0.872714 -6.627611 -3.206121 -15.648617 5.731517 13.536350 -10.058166 70.978093 30.230937 24.931323 -167.858141 42.110208 -128.490979 -25.438547 13.874752 -4.004886 11.210139 10.355373 -2.867452 
